<?xml version="1.0" standalone="no"?>
<!DOCTYPE svg PUBLIC "-//W3C//DTD SVG 20010904//EN"
 "http://www.w3.org/TR/2001/REC-SVG-20010904/DTD/svg10.dtd">
<svg version="1.0" xmlns="http://www.w3.org/2000/svg"
 width="248.000000pt" height="248.000000pt" viewBox="0 0 248.000000 248.000000"
 preserveAspectRatio="xMidYMid meet">
<metadata>
Created by potrace 1.11, written by Peter Selinger 2001-2013
</metadata>
<g transform="translate(0.000000,248.000000) scale(0.100000,-0.100000)"
fill="#000000" stroke="none">
<path d="M532 1798 c-292 -293 -531 -536 -530 -540 8 -22 1043 -1058 1054
-1056 14 3 654 637 654 648 0 9 -295 300 -305 300 -5 0 -84 -74 -175 -165
l-165 -165 -220 220 -220 220 218 217 217 218 373 -373 372 -372 333 0 332 0
0 210 0 210 -222 0 -223 0 -480 480 -480 480 -533 -532z"/>
</g>
</svg>
